#tb 0: 1/25
0,          0,          0,        1,   152064, 0xa0261570
0,          1,          1,        1,   152064, 0x678403c8
0,          2,          2,        1,   152064, 0x1087e7b6
0,          3,          3,        1,   152064, 0xa3909df3
0,          4,          4,        1,   152064, 0x87e4c4d4
